<svg preserveAspectRatio="none" width="100%" height="100%" overflow="visible" style="display: block;" viewBox="0 0 28 36" fill="none" xmlns="http://www.w3.org/2000/svg">
<g id="Group 1000004905">
<path id="Vector 7" d="M16.3428 14.7028C16.6087 14.5699 18.5588 13.1332 19.5006 12.4314C20.6972 14.1156 21.0333 16.5679 21.0517 17.5836C20.1653 16.4756 17.5431 15.2014 16.3428 14.7028Z" fill="var(--fill-0, #063F4A)"/>
<path id="Exclude" d="M12.2988 2.40454C18.5036 -1.14102 24.8562 0.00314079 27.2568 1.0188C27.1239 3.45633 24.579 6.17125 23.3232 7.22387C22.0826 6.82508 20.7752 7.13109 20.2764 7.33423C21.5173 7.42291 22.6034 8.14744 22.9912 8.49829C22.7141 9.3293 20.498 11.0469 17.8389 13.0413C15.1797 15.0356 13.8501 16.1432 13.9609 18.47C14.0496 20.3314 15.7335 21.683 16.5645 22.1262C17.3401 21.2398 19.4453 18.9688 22.2705 17.9163C24.5308 17.0742 26.3516 17.3804 26.9795 17.6389C25.4837 17.5282 22.6029 21.2402 21.0518 23.0129C19.8109 24.431 18.2451 24.6003 17.6172 24.5081C18.7805 25.5606 17.7276 28.386 16.1211 30.4358C14.8359 32.0756 14.5147 34.4434 14.5146 35.4221C12.5646 31.3447 13.9606 26.8533 14.9023 25.1174C15.833 24.8072 16.8417 25.506 17.2295 25.8938C17.0633 24.6752 13.6846 24.0435 12.7422 23.678C6.80352 21.3734 6.24153 16.4019 6.70313 14.2043C5.81667 13.2737 1.86509 14.2228 0 14.8137C1.5955 11.0022 9.15969 8.23908 12.7422 7.33423C12.0331 7.28991 9.15965 7.68578 7.81152 7.88891L9.03027 5.78345C8.76434 4.89706 5.59512 3.78914 4.04395 3.34595C7.27927 1.08565 10.8954 1.77668 12.2988 2.40454ZM20.0547 1.0188C19.6569 1.0188 19.334 1.34175 19.334 1.7395C19.3341 2.13718 19.657 2.45923 20.0547 2.45923C20.4523 2.45917 20.7743 2.13714 20.7744 1.7395C20.7744 1.34178 20.4524 1.01885 20.0547 1.0188Z" fill="var(--fill-0, #063F4A)"/>
</g>
</svg>
