<svg preserveAspectRatio="none" width="100%" height="100%" overflow="visible" style="display: block;" viewBox="0 0 32 32" fill="none" xmlns="http://www.w3.org/2000/svg">
<g id="ChatCircleDots">
<path id="Vector" d="M16 3C13.7556 2.99951 11.5493 3.58011 9.5958 4.68529C7.64235 5.79046 6.0083 7.38256 4.8527 9.30662C3.69711 11.2307 3.05934 13.4212 3.00147 15.6648C2.94361 17.9085 3.46761 20.1289 4.52249 22.11L3.10374 26.3662C2.98622 26.7186 2.96917 27.0968 3.05449 27.4583C3.13981 27.8199 3.32413 28.1505 3.5868 28.4132C3.84947 28.6759 4.18011 28.8602 4.54165 28.9455C4.90319 29.0308 5.28135 29.0138 5.63374 28.8962L9.88999 27.4775C11.6335 28.4048 13.5653 28.9228 15.5388 28.992C17.5123 29.0613 19.4757 28.68 21.2798 27.8772C23.084 27.0743 24.6816 25.871 25.9512 24.3586C27.2209 22.8462 28.1294 21.0644 28.6076 19.1484C29.0859 17.2325 29.1214 15.2328 28.7114 13.301C28.3014 11.3693 27.4568 9.55642 26.2415 7.9999C25.0263 6.44337 23.4724 5.18415 21.6979 4.31782C19.9233 3.45149 17.9747 3.00081 16 3ZM10.5 17.5C10.2033 17.5 9.91331 17.412 9.66663 17.2472C9.41996 17.0824 9.2277 16.8481 9.11417 16.574C9.00064 16.2999 8.97093 15.9983 9.02881 15.7074C9.08669 15.4164 9.22955 15.1491 9.43933 14.9393C9.64911 14.7296 9.91638 14.5867 10.2074 14.5288C10.4983 14.4709 10.7999 14.5006 11.074 14.6142C11.3481 14.7277 11.5824 14.92 11.7472 15.1666C11.912 15.4133 12 15.7033 12 16C12 16.3978 11.842 16.7794 11.5606 17.0607C11.2793 17.342 10.8978 17.5 10.5 17.5ZM16 17.5C15.7033 17.5 15.4133 17.412 15.1666 17.2472C14.92 17.0824 14.7277 16.8481 14.6142 16.574C14.5006 16.2999 14.4709 15.9983 14.5288 15.7074C14.5867 15.4164 14.7295 15.1491 14.9393 14.9393C15.1491 14.7296 15.4164 14.5867 15.7074 14.5288C15.9983 14.4709 16.2999 14.5006 16.574 14.6142C16.8481 14.7277 17.0824 14.92 17.2472 15.1666C17.412 15.4133 17.5 15.7033 17.5 16C17.5 16.3978 17.342 16.7794 17.0606 17.0607C16.7793 17.342 16.3978 17.5 16 17.5ZM21.5 17.5C21.2033 17.5 20.9133 17.412 20.6666 17.2472C20.42 17.0824 20.2277 16.8481 20.1142 16.574C20.0006 16.2999 19.9709 15.9983 20.0288 15.7074C20.0867 15.4164 20.2296 15.1491 20.4393 14.9393C20.6491 14.7296 20.9164 14.5867 21.2074 14.5288C21.4983 14.4709 21.7999 14.5006 22.074 14.6142C22.3481 14.7277 22.5824 14.92 22.7472 15.1666C22.912 15.4133 23 15.7033 23 16C23 16.3978 22.842 16.7794 22.5606 17.0607C22.2793 17.342 21.8978 17.5 21.5 17.5Z" fill="var(--fill-0, white)"/>
</g>
</svg>
