<svg preserveAspectRatio="none" width="100%" height="100%" overflow="visible" style="display: block;" viewBox="0 0 48 48" fill="none" xmlns="http://www.w3.org/2000/svg">
<g id="HandsClapping" clip-path="url(#clip0_2598_644)">
<g id="Vector">
</g>
<path id="Vector_2" d="M35.4131 12.1875C34.9656 11.4105 34.2277 10.8431 33.3618 10.6102C32.4959 10.3772 31.5729 10.4978 30.7959 10.9453C30.0189 11.3929 29.4515 12.1307 29.2186 12.9966C28.9856 13.8625 29.1062 14.7855 29.5537 15.5625L25.005 7.6875C24.5574 6.91124 23.8198 6.34457 22.9545 6.11214C22.0891 5.87972 21.1669 6.00057 20.3906 6.44812C19.6144 6.89568 19.0477 7.63327 18.8153 8.49863C18.5828 9.36399 18.7037 10.2862 19.1512 11.0625L18.075 9.1875C17.6274 8.41124 16.8899 7.84457 16.0245 7.61214C15.1591 7.37972 14.2369 7.50057 13.4606 7.94812C12.6844 8.39568 12.1177 9.13327 11.8853 9.99863C11.6528 10.864 11.7737 11.7862 12.2212 12.5625L12.8475 13.6444C11.9193 13.4141 10.9438 13.4619 10.0426 13.7819C9.14133 14.1019 8.35411 14.6799 7.77892 15.4439C7.20373 16.208 6.86598 17.1244 6.80772 18.0789C6.74945 19.0335 6.97325 19.9842 7.45124 20.8125L8.01374 21.7875C7.21638 21.8887 6.4564 22.1854 5.80146 22.6513C5.14652 23.1173 4.61694 23.7379 4.25987 24.458C3.90279 25.1781 3.7293 25.9753 3.75484 26.7786C3.78038 27.582 4.00415 28.3665 4.40624 29.0625L11.0194 40.5C12.6701 43.3557 15.2147 45.5889 18.2605 46.855C21.3063 48.1212 24.6841 48.35 27.8728 47.5061C31.0615 46.6622 33.8839 44.7925 35.9047 42.1855C37.9254 39.5785 39.0323 36.379 39.0544 33.0806C40.3912 30.9963 41.1283 28.584 41.1849 26.1084C41.2414 23.6329 40.6153 21.1895 39.375 19.0463L35.4131 12.1875ZM35.6381 36.105C35.0206 38.3992 33.7372 40.459 31.95 42.0244C30.1627 43.5897 27.9517 44.5905 25.5962 44.9002C23.2406 45.2099 20.8461 44.8148 18.7149 43.7647C16.5837 42.7146 14.8115 41.0566 13.6219 39L7.00874 27.5625C6.88563 27.349 6.80577 27.1134 6.77372 26.869C6.74167 26.6247 6.75807 26.3764 6.82196 26.1384C6.88586 25.9004 6.99601 25.6773 7.14613 25.4819C7.29625 25.2864 7.48339 25.1225 7.69687 24.9994C8.12801 24.7507 8.64027 24.6835 9.12095 24.8126C9.35895 24.8765 9.58205 24.9866 9.77748 25.1368C9.97292 25.2869 10.1369 25.474 10.26 25.6875L14.0625 32.25C14.2614 32.5949 14.5892 32.8466 14.9737 32.9498C15.3582 33.053 15.7679 32.9992 16.1128 32.8003C16.4577 32.6014 16.7094 32.2736 16.8126 31.8891C16.9158 31.5046 16.862 31.0949 16.6631 30.75L10.0537 19.3125C9.8051 18.8804 9.73831 18.3672 9.86806 17.8858C9.99781 17.4044 10.3135 16.9943 10.7456 16.7456C11.1778 16.497 11.691 16.4302 12.1723 16.5599C12.6537 16.6897 13.0639 17.0054 13.3125 17.4375L19.2769 27.75C19.4758 28.0949 19.8035 28.3466 20.188 28.4498C20.5726 28.553 20.9823 28.4992 21.3272 28.3003C21.672 28.1014 21.9238 27.7736 22.027 27.3891C22.1302 27.0046 22.0764 26.5949 21.8775 26.25L17.0025 17.8125C16.7539 17.3811 16.6868 16.8686 16.816 16.3878C16.9452 15.9069 17.2602 15.4971 17.6916 15.2484C18.1229 14.9998 18.6354 14.9327 19.1163 15.0619C19.5972 15.1912 20.007 15.5061 20.2556 15.9375L27.0994 27.75C27.2983 28.0949 27.626 28.3466 28.0106 28.4498C28.3951 28.553 28.8048 28.4992 29.1497 28.3003C29.4945 28.1014 29.7463 27.7736 29.8495 27.3891C29.9527 27.0046 29.8989 26.5949 29.7 26.25L27.3375 22.1719C27.1585 21.7395 27.1477 21.2558 27.3071 20.8159C27.4666 20.376 27.7848 20.0115 28.1992 19.7942C28.6136 19.5769 29.0943 19.5224 29.5469 19.6414C29.9994 19.7605 30.3911 20.0444 30.645 20.4375L34.4362 27C35.2295 28.3628 35.7442 29.8696 35.9505 31.4329C36.1568 32.9962 36.0506 34.5849 35.6381 36.1069V36.105ZM30.0412 4.5V1.5C30.0412 1.10218 30.1993 0.720644 30.4806 0.43934C30.7619 0.158035 31.1434 0 31.5412 0C31.9391 0 32.3206 0.158035 32.6019 0.43934C32.8832 0.720644 33.0412 1.10218 33.0412 1.5V4.5C33.0412 4.89782 32.8832 5.27936 32.6019 5.56066C32.3206 5.84196 31.9391 6 31.5412 6C31.1434 6 30.7619 5.84196 30.4806 5.56066C30.1993 5.27936 30.0412 4.89782 30.0412 4.5ZM36.27 5.625L37.77 3.16875C37.8725 3.00033 38.0073 2.85376 38.1665 2.7374C38.3257 2.62105 38.5062 2.53719 38.6978 2.49062C38.8894 2.44404 39.0883 2.43566 39.2832 2.46596C39.478 2.49626 39.665 2.56463 39.8334 2.66719C40.0019 2.76974 40.1484 2.90446 40.2648 3.06366C40.3811 3.22286 40.465 3.40342 40.5116 3.59503C40.5581 3.78664 40.5665 3.98554 40.5362 4.18039C40.5059 4.37523 40.4375 4.5622 40.335 4.73062L38.835 7.18875C38.7008 7.40844 38.5123 7.5899 38.2877 7.71567C38.0631 7.84144 37.8099 7.90729 37.5525 7.90687C37.2858 7.9073 37.0239 7.83664 36.7936 7.70216C36.5634 7.56769 36.3731 7.37426 36.2425 7.14181C36.1118 6.90936 36.0455 6.64628 36.0503 6.37967C36.0552 6.11306 36.131 5.85256 36.27 5.625ZM44.7075 11.9362L41.8856 12.8456C41.7365 12.8935 41.581 12.9182 41.4244 12.9188C41.0662 12.9198 40.7195 12.7927 40.4469 12.5604C40.1743 12.3281 39.9939 12.0059 39.9382 11.6521C39.8824 11.2983 39.9552 10.9363 40.1431 10.6314C40.3311 10.3266 40.622 10.0991 40.9631 9.99L43.7869 9.08063C44.1655 8.95854 44.5772 8.99189 44.9313 9.17333C45.2854 9.35477 45.5529 9.66945 45.675 10.0481C45.7971 10.4268 45.7637 10.8385 45.5823 11.1926C45.4008 11.5467 45.0862 11.8142 44.7075 11.9362Z" fill="var(--fill-0, #063F4A)"/>
</g>
<defs>
<clipPath id="clip0_2598_644">
<rect width="48" height="48" fill="white"/>
</clipPath>
</defs>
</svg>
