<svg preserveAspectRatio="none" width="100%" height="100%" overflow="visible" style="display: block;" viewBox="0 0 40 40" fill="none" xmlns="http://www.w3.org/2000/svg">
<g id="Group 1000004909">
<circle id="Ellipse 20" cx="20" cy="20" r="20" fill="var(--fill-0, white)"/>
<g id="PaperPlaneTilt">
<path id="Vector" d="M29.6937 12.1569C29.6937 12.1569 29.6937 12.1663 29.6937 12.1709L24.2375 30.1653C24.1549 30.4576 23.9849 30.7176 23.7503 30.9105C23.5157 31.1034 23.2277 31.2199 22.925 31.2444C22.8819 31.2481 22.8388 31.25 22.7956 31.25C22.5119 31.2509 22.2339 31.1706 21.9944 31.0186C21.7548 30.8666 21.5638 30.6492 21.4437 30.3922L18.0313 23.3891C17.9971 23.3189 17.9857 23.2398 17.9986 23.1628C18.0116 23.0859 18.0482 23.0148 18.1034 22.9597L23.5334 17.5297C23.6682 17.3879 23.7421 17.1991 23.7396 17.0035C23.7371 16.8079 23.6583 16.6211 23.52 16.4828C23.3817 16.3445 23.1949 16.2657 22.9993 16.2632C22.8037 16.2607 22.6149 16.3347 22.4731 16.4694L17.0403 21.8994C16.9852 21.9546 16.9141 21.9912 16.8372 22.0042C16.7602 22.0171 16.6811 22.0057 16.6109 21.9716L9.60125 18.56C9.32714 18.4285 9.09947 18.2168 8.94839 17.953C8.79732 17.6892 8.72997 17.3857 8.75529 17.0827C8.7806 16.7797 8.89738 16.4916 9.09014 16.2565C9.28291 16.0214 9.54256 15.8504 9.83469 15.7662L27.8291 10.31H27.8431C28.0993 10.238 28.3701 10.2355 28.6276 10.3027C28.8851 10.3699 29.1201 10.5044 29.3084 10.6924C29.4968 10.8803 29.6318 11.1151 29.6995 11.3724C29.7672 11.6298 29.7652 11.9005 29.6937 12.1569Z" fill="var(--fill-0, #063F4A)"/>
</g>
</g>
</svg>
