<svg preserveAspectRatio="none" width="100%" height="100%" overflow="visible" style="display: block;" viewBox="0 0 40 40" fill="none" xmlns="http://www.w3.org/2000/svg">
<g id="Group 1000004908">
<circle id="Ellipse 20" cx="20" cy="20" r="20" fill="var(--fill-0, white)"/>
<g id="PhoneCall">
<path id="Vector" d="M21.5253 12.3059C21.5508 12.2108 21.5947 12.1215 21.6547 12.0433C21.7146 11.9651 21.7894 11.8995 21.8747 11.8503C21.9601 11.801 22.0543 11.769 22.1519 11.7561C22.2496 11.7433 22.3489 11.7498 22.4441 11.7753C23.8344 12.1381 25.103 12.8649 26.119 13.881C27.1351 14.897 27.8619 16.1656 28.2247 17.5559C28.2502 17.6511 28.2567 17.7504 28.2439 17.8481C28.231 17.9457 28.199 18.0399 28.1497 18.1253C28.1005 18.2106 28.0349 18.2854 27.9567 18.3453C27.8785 18.4053 27.7892 18.4492 27.6941 18.4747C27.6307 18.4913 27.5655 18.4998 27.5 18.5C27.3349 18.5001 27.1743 18.4456 27.0433 18.3451C26.9122 18.2445 26.818 18.1036 26.7753 17.9441C26.4796 16.8089 25.8865 15.7731 25.0571 14.9435C24.2277 14.114 23.192 13.5206 22.0569 13.2247C21.9616 13.1993 21.8723 13.1554 21.794 13.0955C21.7157 13.0356 21.65 12.9608 21.6006 12.8755C21.5512 12.7902 21.5192 12.696 21.5063 12.5982C21.4933 12.5005 21.4998 12.4012 21.5253 12.3059ZM21.3069 16.2247C22.5997 16.5697 23.4303 17.4013 23.7753 18.6941C23.818 18.8536 23.9122 18.9945 24.0433 19.0951C24.1743 19.1956 24.3349 19.2501 24.5 19.25C24.5655 19.2498 24.6307 19.2413 24.6941 19.2247C24.7892 19.1992 24.8785 19.1553 24.9567 19.0953C25.0349 19.0354 25.1005 18.9606 25.1497 18.8753C25.199 18.7899 25.231 18.6957 25.2439 18.5981C25.2567 18.5004 25.2502 18.4011 25.2247 18.3059C24.7447 16.5097 23.4903 15.2553 21.6941 14.7753C21.5019 14.724 21.2971 14.7511 21.1249 14.8507C20.9527 14.9503 20.8271 15.1142 20.7758 15.3064C20.7244 15.4986 20.7515 15.7033 20.8511 15.8755C20.9507 16.0478 21.1147 16.1733 21.3069 16.2247ZM28.0972 23.6056L23.6806 21.6266L23.6684 21.6209C23.4392 21.5229 23.189 21.4835 22.9407 21.5064C22.6924 21.5293 22.4537 21.6138 22.2463 21.7522C22.2218 21.7683 22.1983 21.7859 22.1759 21.8047L19.8941 23.75C18.4484 23.0478 16.9559 21.5666 16.2538 20.1397L18.2019 17.8231C18.2206 17.7997 18.2384 17.7763 18.2553 17.7509C18.3907 17.544 18.4729 17.3069 18.4945 17.0605C18.516 16.8142 18.4764 16.5664 18.3791 16.3391V16.3278L16.3944 11.9038C16.2657 11.6068 16.0444 11.3595 15.7636 11.1986C15.4828 11.0377 15.1575 10.972 14.8362 11.0113C13.5659 11.1784 12.3999 11.8023 11.5559 12.7663C10.7119 13.7304 10.2477 14.9687 10.25 16.25C10.25 23.6938 16.3062 29.75 23.75 29.75C25.0313 29.7523 26.2696 29.2881 27.2337 28.4441C28.1977 27.6001 28.8216 26.4341 28.9888 25.1637C29.028 24.8426 28.9625 24.5174 28.8018 24.2366C28.6411 23.9558 28.394 23.7345 28.0972 23.6056Z" fill="var(--fill-0, #063F4A)"/>
</g>
</g>
</svg>
